<?xml version="1.0" encoding="UTF-8" standalone="no"?>
<!DOCTYPE svg PUBLIC "-//W3C//DTD SVG 1.1//EN"
 "http://www.w3.org/Graphics/SVG/1.1/DTD/svg11.dtd">
<!-- Generated by graphviz version 2.43.0 (0)
 -->
<!-- Title: G Pages: 1 -->
<svg width="1982pt" height="1052pt"
 viewBox="0.00 0.00 1982.00 1052.00" xmlns="http://www.w3.org/2000/svg" xmlns:xlink="http://www.w3.org/1999/xlink">
<g id="graph0" class="graph" transform="scale(1 1) rotate(0) translate(4 1048)">
<title>G</title>
<polygon fill="white" stroke="transparent" points="-4,4 -4,-1048 1978,-1048 1978,4 -4,4"/>
<!-- ls -->
<g id="node1" class="node">
<title>ls</title>
<ellipse fill="none" stroke="black" cx="299" cy="-954" rx="27" ry="18"/>
<text text-anchor="middle" x="299" y="-950.3" font-family="Times,serif" font-size="14.00">ls</text>
</g>
<!-- gl -->
<g id="node2" class="node">
<title>gl</title>
<ellipse fill="none" stroke="black" cx="247" cy="-882" rx="27" ry="18"/>
<text text-anchor="middle" x="247" y="-878.3" font-family="Times,serif" font-size="14.00">gl</text>
</g>
<!-- ls&#45;&gt;gl -->
<g id="edge1" class="edge">
<title>ls&#45;&gt;gl</title>
<path fill="none" stroke="black" d="M287.46,-937.46C280.73,-928.4 272.1,-916.79 264.54,-906.61"/>
<polygon fill="black" stroke="black" points="267.28,-904.43 258.51,-898.49 261.66,-908.61 267.28,-904.43"/>
</g>
<!-- rz -->
<g id="node3" class="node">
<title>rz</title>
<ellipse fill="none" stroke="black" cx="359" cy="-810" rx="27" ry="18"/>
<text text-anchor="middle" x="359" y="-806.3" font-family="Times,serif" font-size="14.00">rz</text>
</g>
<!-- gl&#45;&gt;rz -->
<g id="edge78" class="edge">
<title>gl&#45;&gt;rz</title>
<path fill="none" stroke="black" d="M263.14,-867.5C280.33,-855.74 307.54,-838.68 328.68,-826.38"/>
<polygon fill="black" stroke="black" points="330.68,-829.28 337.62,-821.27 327.2,-823.2 330.68,-829.28"/>
</g>
<!-- mz -->
<g id="node19" class="node">
<title>mz</title>
<ellipse fill="none" stroke="black" cx="207" cy="-522" rx="27" ry="18"/>
<text text-anchor="middle" x="207" y="-518.3" font-family="Times,serif" font-size="14.00">mz</text>
</g>
<!-- gl&#45;&gt;mz -->
<g id="edge77" class="edge">
<title>gl&#45;&gt;mz</title>
<path fill="none" stroke="black" d="M236.01,-865.22C219.45,-839.85 190,-787.88 190,-739 190,-739 190,-739 190,-665 190,-624.71 196.83,-578.44 201.83,-549.96"/>
<polygon fill="black" stroke="black" points="205.3,-550.43 203.64,-539.97 198.42,-549.19 205.3,-550.43"/>
</g>
<!-- sp -->
<g id="node25" class="node">
<title>sp</title>
<ellipse fill="none" stroke="black" cx="131" cy="-378" rx="27" ry="18"/>
<text text-anchor="middle" x="131" y="-374.3" font-family="Times,serif" font-size="14.00">sp</text>
</g>
<!-- gl&#45;&gt;sp -->
<g id="edge76" class="edge">
<title>gl&#45;&gt;sp</title>
<path fill="none" stroke="black" d="M225.63,-870.66C188.04,-850.81 114,-803.52 114,-739 114,-739 114,-739 114,-521 114,-480.71 120.83,-434.44 125.83,-405.96"/>
<polygon fill="black" stroke="black" points="129.3,-406.43 127.64,-395.97 122.42,-405.19 129.3,-406.43"/>
</g>
<!-- mj -->
<g id="node26" class="node">
<title>mj</title>
<ellipse fill="none" stroke="black" cx="112" cy="-306" rx="27" ry="18"/>
<text text-anchor="middle" x="112" y="-302.3" font-family="Times,serif" font-size="14.00">mj</text>
</g>
<!-- gl&#45;&gt;mj -->
<g id="edge79" class="edge">
<title>gl&#45;&gt;mj</title>
<path fill="none" stroke="black" d="M222.19,-874.5C196.7,-866.82 157.03,-851.97 130,-828 95.38,-797.31 76,-785.27 76,-739 76,-739 76,-739 76,-449 76,-407.55 90.59,-361.32 101.2,-333.2"/>
<polygon fill="black" stroke="black" points="104.53,-334.29 104.89,-323.7 98,-331.75 104.53,-334.29"/>
</g>
<!-- xn -->
<g id="node48" class="node">
<title>xn</title>
<ellipse fill="none" stroke="black" cx="283" cy="-666" rx="27" ry="18"/>
<text text-anchor="middle" x="283" y="-662.3" font-family="Times,serif" font-size="14.00">xn</text>
</g>
<!-- gl&#45;&gt;xn -->
<g id="edge75" class="edge">
<title>gl&#45;&gt;xn</title>
<path fill="none" stroke="black" d="M249.89,-863.85C256.13,-826.74 270.93,-738.75 278.45,-694.05"/>
<polygon fill="black" stroke="black" points="281.94,-694.38 280.15,-683.94 275.04,-693.22 281.94,-694.38"/>
</g>
<!-- dd -->
<g id="node50" class="node">
<title>dd</title>
<ellipse fill="none" stroke="black" cx="169" cy="-450" rx="27" ry="18"/>
<text text-anchor="middle" x="169" y="-446.3" font-family="Times,serif" font-size="14.00">dd</text>
</g>
<!-- gl&#45;&gt;dd -->
<g id="edge80" class="edge">
<title>gl&#45;&gt;dd</title>
<path fill="none" stroke="black" d="M230.02,-867.7C202.69,-844.67 152,-794.47 152,-739 152,-739 152,-739 152,-593 152,-552.71 158.83,-506.44 163.83,-477.96"/>
<polygon fill="black" stroke="black" points="167.3,-478.43 165.64,-467.97 160.42,-477.19 167.3,-478.43"/>
</g>
<!-- fh -->
<g id="node55" class="node">
<title>fh</title>
<ellipse fill="none" stroke="black" cx="1027" cy="-666" rx="27" ry="18"/>
<text text-anchor="middle" x="1027" y="-662.3" font-family="Times,serif" font-size="14.00">fh</text>
</g>
<!-- gl&#45;&gt;fh -->
<g id="edge74" class="edge">
<title>gl&#45;&gt;fh</title>
<path fill="none" stroke="black" d="M274.11,-881.48C353.85,-882.21 593.93,-879.66 784,-828 857.69,-807.97 877.61,-800.03 940,-756 966.72,-737.14 992.26,-709.47 1008.67,-690"/>
<polygon fill="black" stroke="black" points="1011.44,-692.14 1015.13,-682.2 1006.05,-687.67 1011.44,-692.14"/>
</g>
<!-- rz&#45;&gt;gl -->
<g id="edge3" class="edge">
<title>rz&#45;&gt;gl</title>
<path fill="none" stroke="black" d="M342.78,-824.56C325.54,-836.35 298.27,-853.44 277.14,-865.72"/>
<polygon fill="black" stroke="black" points="275.16,-862.82 268.21,-870.82 278.63,-868.9 275.16,-862.82"/>
</g>
<!-- vm -->
<g id="node4" class="node">
<title>vm</title>
<ellipse fill="none" stroke="black" cx="321" cy="-738" rx="27" ry="18"/>
<text text-anchor="middle" x="321" y="-734.3" font-family="Times,serif" font-size="14.00">vm</text>
</g>
<!-- rz&#45;&gt;vm -->
<g id="edge2" class="edge">
<title>rz&#45;&gt;vm</title>
<path fill="none" stroke="black" d="M350.19,-792.76C345.58,-784.28 339.84,-773.71 334.68,-764.2"/>
<polygon fill="black" stroke="black" points="337.61,-762.27 329.77,-755.15 331.46,-765.61 337.61,-762.27"/>
</g>
<!-- vm&#45;&gt;gl -->
<g id="edge47" class="edge">
<title>vm&#45;&gt;gl</title>
<path fill="none" stroke="black" d="M314.05,-755.71C306.34,-773.82 293.24,-803.44 280,-828 274.89,-837.49 268.76,-847.6 263.19,-856.43"/>
<polygon fill="black" stroke="black" points="260.1,-854.77 257.65,-865.07 265.99,-858.55 260.1,-854.77"/>
</g>
<!-- vm&#45;&gt;xn -->
<g id="edge48" class="edge">
<title>vm&#45;&gt;xn</title>
<path fill="none" stroke="black" d="M312.19,-720.76C307.58,-712.28 301.84,-701.71 296.68,-692.2"/>
<polygon fill="black" stroke="black" points="299.61,-690.27 291.77,-683.15 293.46,-693.61 299.61,-690.27"/>
</g>
<!-- broadcaster -->
<g id="node5" class="node">
<title>broadcaster</title>
<ellipse fill="none" stroke="black" cx="1027" cy="-1026" rx="66.09" ry="18"/>
<text text-anchor="middle" x="1027" y="-1022.3" font-family="Times,serif" font-size="14.00">broadcaster</text>
</g>
<!-- broadcaster&#45;&gt;rz -->
<g id="edge4" class="edge">
<title>broadcaster&#45;&gt;rz</title>
<path fill="none" stroke="black" d="M965.22,-1019.42C900.9,-1012.51 797.77,-998.28 712,-972 586.07,-933.42 446.57,-859.84 387.7,-827.24"/>
<polygon fill="black" stroke="black" points="389.39,-824.18 378.95,-822.37 385.99,-830.3 389.39,-824.18"/>
</g>
<!-- fp -->
<g id="node6" class="node">
<title>fp</title>
<ellipse fill="none" stroke="black" cx="748" cy="-954" rx="27" ry="18"/>
<text text-anchor="middle" x="748" y="-950.3" font-family="Times,serif" font-size="14.00">fp</text>
</g>
<!-- broadcaster&#45;&gt;fp -->
<g id="edge5" class="edge">
<title>broadcaster&#45;&gt;fp</title>
<path fill="none" stroke="black" d="M979.99,-1013.2C924.31,-999.24 832.87,-976.29 783.04,-963.79"/>
<polygon fill="black" stroke="black" points="783.62,-960.33 773.07,-961.29 781.91,-967.12 783.62,-960.33"/>
</g>
<!-- kv -->
<g id="node7" class="node">
<title>kv</title>
<ellipse fill="none" stroke="black" cx="1306" cy="-954" rx="27" ry="18"/>
<text text-anchor="middle" x="1306" y="-950.3" font-family="Times,serif" font-size="14.00">kv</text>
</g>
<!-- broadcaster&#45;&gt;kv -->
<g id="edge6" class="edge">
<title>broadcaster&#45;&gt;kv</title>
<path fill="none" stroke="black" d="M1074.01,-1013.2C1129.69,-999.24 1221.13,-976.29 1270.96,-963.79"/>
<polygon fill="black" stroke="black" points="1272.09,-967.12 1280.93,-961.29 1270.38,-960.33 1272.09,-967.12"/>
</g>
<!-- fd -->
<g id="node8" class="node">
<title>fd</title>
<ellipse fill="none" stroke="black" cx="1716" cy="-954" rx="27" ry="18"/>
<text text-anchor="middle" x="1716" y="-950.3" font-family="Times,serif" font-size="14.00">fd</text>
</g>
<!-- broadcaster&#45;&gt;fd -->
<g id="edge7" class="edge">
<title>broadcaster&#45;&gt;fd</title>
<path fill="none" stroke="black" d="M1087.84,-1018.82C1227.38,-1004.64 1567.06,-970.13 1679.32,-958.73"/>
<polygon fill="black" stroke="black" points="1679.86,-962.19 1689.45,-957.7 1679.15,-955.23 1679.86,-962.19"/>
</g>
<!-- cc -->
<g id="node14" class="node">
<title>cc</title>
<ellipse fill="none" stroke="black" cx="684" cy="-882" rx="27" ry="18"/>
<text text-anchor="middle" x="684" y="-878.3" font-family="Times,serif" font-size="14.00">cc</text>
</g>
<!-- fp&#45;&gt;cc -->
<g id="edge11" class="edge">
<title>fp&#45;&gt;cc</title>
<path fill="none" stroke="black" d="M734.43,-938.15C725.69,-928.6 714.17,-915.99 704.34,-905.25"/>
<polygon fill="black" stroke="black" points="706.88,-902.84 697.55,-897.82 701.72,-907.57 706.88,-902.84"/>
</g>
<!-- gk -->
<g id="node15" class="node">
<title>gk</title>
<ellipse fill="none" stroke="black" cx="748" cy="-810" rx="27" ry="18"/>
<text text-anchor="middle" x="748" y="-806.3" font-family="Times,serif" font-size="14.00">gk</text>
</g>
<!-- fp&#45;&gt;gk -->
<g id="edge12" class="edge">
<title>fp&#45;&gt;gk</title>
<path fill="none" stroke="black" d="M743.45,-936.15C740.85,-911.92 740.56,-866.96 742.56,-838.05"/>
<polygon fill="black" stroke="black" points="746.07,-838.09 743.45,-827.82 739.1,-837.49 746.07,-838.09"/>
</g>
<!-- hr -->
<g id="node12" class="node">
<title>hr</title>
<ellipse fill="none" stroke="black" cx="1306" cy="-810" rx="27" ry="18"/>
<text text-anchor="middle" x="1306" y="-806.3" font-family="Times,serif" font-size="14.00">hr</text>
</g>
<!-- kv&#45;&gt;hr -->
<g id="edge44" class="edge">
<title>kv&#45;&gt;hr</title>
<path fill="none" stroke="black" d="M1301.45,-936.15C1298.85,-911.92 1298.56,-866.96 1300.56,-838.05"/>
<polygon fill="black" stroke="black" points="1304.07,-838.09 1301.45,-827.82 1297.1,-837.49 1304.07,-838.09"/>
</g>
<!-- xr -->
<g id="node45" class="node">
<title>xr</title>
<ellipse fill="none" stroke="black" cx="1370" cy="-882" rx="27" ry="18"/>
<text text-anchor="middle" x="1370" y="-878.3" font-family="Times,serif" font-size="14.00">xr</text>
</g>
<!-- kv&#45;&gt;xr -->
<g id="edge43" class="edge">
<title>kv&#45;&gt;xr</title>
<path fill="none" stroke="black" d="M1319.57,-938.15C1328.31,-928.6 1339.83,-915.99 1349.66,-905.25"/>
<polygon fill="black" stroke="black" points="1352.28,-907.57 1356.45,-897.82 1347.12,-902.84 1352.28,-907.57"/>
</g>
<!-- nr -->
<g id="node41" class="node">
<title>nr</title>
<ellipse fill="none" stroke="black" cx="1748" cy="-738" rx="27" ry="18"/>
<text text-anchor="middle" x="1748" y="-734.3" font-family="Times,serif" font-size="14.00">nr</text>
</g>
<!-- fd&#45;&gt;nr -->
<g id="edge83" class="edge">
<title>fd&#45;&gt;nr</title>
<path fill="none" stroke="black" d="M1714.69,-935.85C1716.7,-898.57 1729.7,-809.94 1739.42,-765.44"/>
<polygon fill="black" stroke="black" points="1742.84,-766.17 1741.68,-755.64 1736.02,-764.6 1742.84,-766.17"/>
</g>
<!-- df -->
<g id="node58" class="node">
<title>df</title>
<ellipse fill="none" stroke="black" cx="1684" cy="-882" rx="27" ry="18"/>
<text text-anchor="middle" x="1684" y="-878.3" font-family="Times,serif" font-size="14.00">df</text>
</g>
<!-- fd&#45;&gt;df -->
<g id="edge84" class="edge">
<title>fd&#45;&gt;df</title>
<path fill="none" stroke="black" d="M1708.42,-936.41C1704.63,-928.13 1699.97,-917.92 1695.73,-908.66"/>
<polygon fill="black" stroke="black" points="1698.87,-907.11 1691.53,-899.47 1692.5,-910.02 1698.87,-907.11"/>
</g>
<!-- ql -->
<g id="node9" class="node">
<title>ql</title>
<ellipse fill="none" stroke="black" cx="693" cy="-594" rx="27" ry="18"/>
<text text-anchor="middle" x="693" y="-590.3" font-family="Times,serif" font-size="14.00">ql</text>
</g>
<!-- bn -->
<g id="node10" class="node">
<title>bn</title>
<ellipse fill="none" stroke="black" cx="712" cy="-522" rx="27" ry="18"/>
<text text-anchor="middle" x="712" y="-518.3" font-family="Times,serif" font-size="14.00">bn</text>
</g>
<!-- ql&#45;&gt;bn -->
<g id="edge8" class="edge">
<title>ql&#45;&gt;bn</title>
<path fill="none" stroke="black" d="M697.6,-576.05C699.75,-568.14 702.35,-558.54 704.76,-549.69"/>
<polygon fill="black" stroke="black" points="708.2,-550.36 707.44,-539.79 701.45,-548.52 708.2,-550.36"/>
</g>
<!-- bn&#45;&gt;gk -->
<g id="edge29" class="edge">
<title>bn&#45;&gt;gk</title>
<path fill="none" stroke="black" d="M718.52,-539.92C722.21,-550.2 726.56,-563.68 729,-576 743.56,-649.4 747,-737.93 747.79,-781.73"/>
<polygon fill="black" stroke="black" points="744.29,-781.91 747.94,-791.86 751.29,-781.81 744.29,-781.91"/>
</g>
<!-- rj -->
<g id="node31" class="node">
<title>rj</title>
<ellipse fill="none" stroke="black" cx="712" cy="-450" rx="27" ry="18"/>
<text text-anchor="middle" x="712" y="-446.3" font-family="Times,serif" font-size="14.00">rj</text>
</g>
<!-- bn&#45;&gt;rj -->
<g id="edge28" class="edge">
<title>bn&#45;&gt;rj</title>
<path fill="none" stroke="black" d="M712,-503.7C712,-495.98 712,-486.71 712,-478.11"/>
<polygon fill="black" stroke="black" points="715.5,-478.1 712,-468.1 708.5,-478.1 715.5,-478.1"/>
</g>
<!-- bm -->
<g id="node11" class="node">
<title>bm</title>
<ellipse fill="none" stroke="black" cx="1285" cy="-306" rx="27" ry="18"/>
<text text-anchor="middle" x="1285" y="-302.3" font-family="Times,serif" font-size="14.00">bm</text>
</g>
<!-- bm&#45;&gt;hr -->
<g id="edge9" class="edge">
<title>bm&#45;&gt;hr</title>
<path fill="none" stroke="black" d="M1281.64,-323.97C1276.69,-350.52 1268,-403.56 1268,-449 1268,-667 1268,-667 1268,-667 1268,-708.59 1283.4,-754.78 1294.6,-782.86"/>
<polygon fill="black" stroke="black" points="1291.45,-784.42 1298.49,-792.34 1297.93,-781.76 1291.45,-784.42"/>
</g>
<!-- fj -->
<g id="node13" class="node">
<title>fj</title>
<ellipse fill="none" stroke="black" cx="1247" cy="-234" rx="27" ry="18"/>
<text text-anchor="middle" x="1247" y="-230.3" font-family="Times,serif" font-size="14.00">fj</text>
</g>
<!-- bm&#45;&gt;fj -->
<g id="edge10" class="edge">
<title>bm&#45;&gt;fj</title>
<path fill="none" stroke="black" d="M1276.19,-288.76C1271.58,-280.28 1265.84,-269.71 1260.68,-260.2"/>
<polygon fill="black" stroke="black" points="1263.61,-258.27 1255.77,-251.15 1257.46,-261.61 1263.61,-258.27"/>
</g>
<!-- hr&#45;&gt;kv -->
<g id="edge40" class="edge">
<title>hr&#45;&gt;kv</title>
<path fill="none" stroke="black" d="M1310.55,-827.82C1313.15,-852.05 1313.44,-897 1311.44,-925.93"/>
<polygon fill="black" stroke="black" points="1307.93,-925.89 1310.55,-936.15 1314.9,-926.49 1307.93,-925.89"/>
</g>
<!-- hh -->
<g id="node42" class="node">
<title>hh</title>
<ellipse fill="none" stroke="black" cx="1099" cy="-666" rx="27" ry="18"/>
<text text-anchor="middle" x="1099" y="-662.3" font-family="Times,serif" font-size="14.00">hh</text>
</g>
<!-- hr&#45;&gt;hh -->
<g id="edge39" class="edge">
<title>hr&#45;&gt;hh</title>
<path fill="none" stroke="black" d="M1279.18,-807.04C1243.39,-803.1 1179.89,-791.27 1140,-756 1121.55,-739.69 1110.86,-713.36 1105.05,-693.57"/>
<polygon fill="black" stroke="black" points="1108.42,-692.64 1102.44,-683.9 1101.66,-694.46 1108.42,-692.64"/>
</g>
<!-- xl -->
<g id="node43" class="node">
<title>xl</title>
<ellipse fill="none" stroke="black" cx="1342" cy="-450" rx="27" ry="18"/>
<text text-anchor="middle" x="1342" y="-446.3" font-family="Times,serif" font-size="14.00">xl</text>
</g>
<!-- hr&#45;&gt;xl -->
<g id="edge41" class="edge">
<title>hr&#45;&gt;xl</title>
<path fill="none" stroke="black" d="M1306,-791.95C1306,-765.29 1306,-712.11 1306,-667 1306,-667 1306,-667 1306,-593 1306,-551.55 1320.59,-505.32 1331.2,-477.2"/>
<polygon fill="black" stroke="black" points="1334.53,-478.29 1334.89,-467.7 1328,-475.75 1334.53,-478.29"/>
</g>
<!-- qq -->
<g id="node44" class="node">
<title>qq</title>
<ellipse fill="none" stroke="black" cx="1475" cy="-738" rx="27" ry="18"/>
<text text-anchor="middle" x="1475" y="-734.3" font-family="Times,serif" font-size="14.00">qq</text>
</g>
<!-- hr&#45;&gt;qq -->
<g id="edge42" class="edge">
<title>hr&#45;&gt;qq</title>
<path fill="none" stroke="black" d="M1328.66,-799.62C1354.24,-789.03 1397.11,-771.28 1434,-756 1436.9,-754.8 1439.91,-753.55 1442.92,-752.3"/>
<polygon fill="black" stroke="black" points="1444.55,-755.42 1452.44,-748.35 1441.87,-748.95 1444.55,-755.42"/>
</g>
<!-- fj&#45;&gt;hr -->
<g id="edge92" class="edge">
<title>fj&#45;&gt;hr</title>
<path fill="none" stroke="black" d="M1243.64,-251.97C1238.69,-278.52 1230,-331.56 1230,-377 1230,-667 1230,-667 1230,-667 1230,-713.88 1262.6,-760.26 1285.09,-786.69"/>
<polygon fill="black" stroke="black" points="1282.48,-789.02 1291.7,-794.23 1287.74,-784.4 1282.48,-789.02"/>
</g>
<!-- pt -->
<g id="node24" class="node">
<title>pt</title>
<ellipse fill="none" stroke="black" cx="1209" cy="-162" rx="27" ry="18"/>
<text text-anchor="middle" x="1209" y="-158.3" font-family="Times,serif" font-size="14.00">pt</text>
</g>
<!-- fj&#45;&gt;pt -->
<g id="edge91" class="edge">
<title>fj&#45;&gt;pt</title>
<path fill="none" stroke="black" d="M1238.19,-216.76C1233.58,-208.28 1227.84,-197.71 1222.68,-188.2"/>
<polygon fill="black" stroke="black" points="1225.61,-186.27 1217.77,-179.15 1219.46,-189.61 1225.61,-186.27"/>
</g>
<!-- cc&#45;&gt;gk -->
<g id="edge98" class="edge">
<title>cc&#45;&gt;gk</title>
<path fill="none" stroke="black" d="M697.57,-866.15C706.31,-856.6 717.83,-843.99 727.66,-833.25"/>
<polygon fill="black" stroke="black" points="730.28,-835.57 734.45,-825.82 725.12,-830.84 730.28,-835.57"/>
</g>
<!-- tp -->
<g id="node51" class="node">
<title>tp</title>
<ellipse fill="none" stroke="black" cx="507" cy="-738" rx="27" ry="18"/>
<text text-anchor="middle" x="507" y="-734.3" font-family="Times,serif" font-size="14.00">tp</text>
</g>
<!-- cc&#45;&gt;tp -->
<g id="edge99" class="edge">
<title>cc&#45;&gt;tp</title>
<path fill="none" stroke="black" d="M667.35,-867.64C636.12,-842.59 568.6,-788.42 531.93,-759"/>
<polygon fill="black" stroke="black" points="533.73,-755.95 523.74,-752.43 529.35,-761.41 533.73,-755.95"/>
</g>
<!-- gk&#45;&gt;fp -->
<g id="edge87" class="edge">
<title>gk&#45;&gt;fp</title>
<path fill="none" stroke="black" d="M752.55,-827.82C755.15,-852.05 755.44,-897 753.44,-925.93"/>
<polygon fill="black" stroke="black" points="749.93,-925.89 752.55,-936.15 756.9,-926.49 749.93,-925.89"/>
</g>
<!-- gk&#45;&gt;ql -->
<g id="edge88" class="edge">
<title>gk&#45;&gt;ql</title>
<path fill="none" stroke="black" d="M743.42,-791.82C740.67,-781.46 737.11,-767.98 734,-756 721.77,-708.84 707.83,-653.83 699.76,-621.85"/>
<polygon fill="black" stroke="black" points="703.1,-620.77 697.26,-611.93 696.31,-622.49 703.1,-620.77"/>
</g>
<!-- lk -->
<g id="node16" class="node">
<title>lk</title>
<ellipse fill="none" stroke="black" cx="955" cy="-666" rx="27" ry="18"/>
<text text-anchor="middle" x="955" y="-662.3" font-family="Times,serif" font-size="14.00">lk</text>
</g>
<!-- gk&#45;&gt;lk -->
<g id="edge85" class="edge">
<title>gk&#45;&gt;lk</title>
<path fill="none" stroke="black" d="M774.82,-807.04C810.61,-803.1 874.11,-791.27 914,-756 932.45,-739.69 943.14,-713.36 948.95,-693.57"/>
<polygon fill="black" stroke="black" points="952.34,-694.46 951.56,-683.9 945.58,-692.64 952.34,-694.46"/>
</g>
<!-- gk&#45;&gt;rj -->
<g id="edge90" class="edge">
<title>gk&#45;&gt;rj</title>
<path fill="none" stroke="black" d="M725.52,-799.92C684.12,-781.53 600,-735.72 600,-667 600,-667 600,-667 600,-593 600,-538.53 651.44,-492.67 684.6,-468.77"/>
<polygon fill="black" stroke="black" points="686.81,-471.49 693,-462.89 682.8,-465.75 686.81,-471.49"/>
</g>
<!-- hq -->
<g id="node46" class="node">
<title>hq</title>
<ellipse fill="none" stroke="black" cx="655" cy="-666" rx="27" ry="18"/>
<text text-anchor="middle" x="655" y="-662.3" font-family="Times,serif" font-size="14.00">hq</text>
</g>
<!-- gk&#45;&gt;hq -->
<g id="edge89" class="edge">
<title>gk&#45;&gt;hq</title>
<path fill="none" stroke="black" d="M731.96,-795.37C720.84,-785.31 706.25,-770.86 696,-756 682.47,-736.39 671.47,-711.59 664.29,-693.16"/>
<polygon fill="black" stroke="black" points="667.5,-691.76 660.69,-683.65 660.95,-694.24 667.5,-691.76"/>
</g>
<!-- gk&#45;&gt;tp -->
<g id="edge86" class="edge">
<title>gk&#45;&gt;tp</title>
<path fill="none" stroke="black" d="M722.74,-803.45C684.48,-794.8 609.76,-776.88 548,-756 544.86,-754.94 541.62,-753.75 538.4,-752.52"/>
<polygon fill="black" stroke="black" points="539.51,-749.19 528.92,-748.73 536.91,-755.69 539.51,-749.19"/>
</g>
<!-- nc -->
<g id="node17" class="node">
<title>nc</title>
<ellipse fill="none" stroke="black" cx="1063" cy="-594" rx="27" ry="18"/>
<text text-anchor="middle" x="1063" y="-590.3" font-family="Times,serif" font-size="14.00">nc</text>
</g>
<!-- lk&#45;&gt;nc -->
<g id="edge13" class="edge">
<title>lk&#45;&gt;nc</title>
<path fill="none" stroke="black" d="M973.81,-652.81C991,-641.67 1016.62,-625.06 1035.99,-612.5"/>
<polygon fill="black" stroke="black" points="1037.92,-615.43 1044.4,-607.05 1034.11,-609.56 1037.92,-615.43"/>
</g>
<!-- rx -->
<g id="node57" class="node">
<title>rx</title>
<ellipse fill="none" stroke="black" cx="1063" cy="-18" rx="27" ry="18"/>
<text text-anchor="middle" x="1063" y="-14.3" font-family="Times,serif" font-size="14.00">rx</text>
</g>
<!-- nc&#45;&gt;rx -->
<g id="edge64" class="edge">
<title>nc&#45;&gt;rx</title>
<path fill="none" stroke="black" d="M1063,-575.95C1063,-549.29 1063,-496.11 1063,-451 1063,-451 1063,-451 1063,-161 1063,-121 1063,-74.65 1063,-46.08"/>
<polygon fill="black" stroke="black" points="1066.5,-46.05 1063,-36.05 1059.5,-46.05 1066.5,-46.05"/>
</g>
<!-- xg -->
<g id="node18" class="node">
<title>xg</title>
<ellipse fill="none" stroke="black" cx="245" cy="-594" rx="27" ry="18"/>
<text text-anchor="middle" x="245" y="-590.3" font-family="Times,serif" font-size="14.00">xg</text>
</g>
<!-- xg&#45;&gt;gl -->
<g id="edge14" class="edge">
<title>xg&#45;&gt;gl</title>
<path fill="none" stroke="black" d="M245.12,-612.31C245.46,-660.31 246.4,-795.44 246.81,-853.7"/>
<polygon fill="black" stroke="black" points="243.31,-853.99 246.88,-863.97 250.31,-853.94 243.31,-853.99"/>
</g>
<!-- xg&#45;&gt;mz -->
<g id="edge15" class="edge">
<title>xg&#45;&gt;mz</title>
<path fill="none" stroke="black" d="M236.19,-576.76C231.58,-568.28 225.84,-557.71 220.68,-548.2"/>
<polygon fill="black" stroke="black" points="223.61,-546.27 215.77,-539.15 217.46,-549.61 223.61,-546.27"/>
</g>
<!-- mz&#45;&gt;dd -->
<g id="edge51" class="edge">
<title>mz&#45;&gt;dd</title>
<path fill="none" stroke="black" d="M198.19,-504.76C193.58,-496.28 187.84,-485.71 182.68,-476.2"/>
<polygon fill="black" stroke="black" points="185.61,-474.27 177.77,-467.15 179.46,-477.61 185.61,-474.27"/>
</g>
<!-- dg -->
<g id="node20" class="node">
<title>dg</title>
<ellipse fill="none" stroke="black" cx="807" cy="-306" rx="27" ry="18"/>
<text text-anchor="middle" x="807" y="-302.3" font-family="Times,serif" font-size="14.00">dg</text>
</g>
<!-- dg&#45;&gt;gk -->
<g id="edge16" class="edge">
<title>dg&#45;&gt;gk</title>
<path fill="none" stroke="black" d="M810.36,-323.97C815.31,-350.52 824,-403.56 824,-449 824,-667 824,-667 824,-667 824,-713.88 791.4,-760.26 768.91,-786.69"/>
<polygon fill="black" stroke="black" points="766.26,-784.4 762.3,-794.23 771.52,-789.02 766.26,-784.4"/>
</g>
<!-- mp -->
<g id="node21" class="node">
<title>mp</title>
<ellipse fill="none" stroke="black" cx="826" cy="-234" rx="27" ry="18"/>
<text text-anchor="middle" x="826" y="-230.3" font-family="Times,serif" font-size="14.00">mp</text>
</g>
<!-- dg&#45;&gt;mp -->
<g id="edge17" class="edge">
<title>dg&#45;&gt;mp</title>
<path fill="none" stroke="black" d="M811.6,-288.05C813.75,-280.14 816.35,-270.54 818.76,-261.69"/>
<polygon fill="black" stroke="black" points="822.2,-262.36 821.44,-251.79 815.45,-260.52 822.2,-262.36"/>
</g>
<!-- mp&#45;&gt;gk -->
<g id="edge65" class="edge">
<title>mp&#45;&gt;gk</title>
<path fill="none" stroke="black" d="M833.11,-251.7C843.6,-277.89 862,-330.46 862,-377 862,-667 862,-667 862,-667 862,-721.85 809.64,-767.58 775.89,-791.35"/>
<polygon fill="black" stroke="black" points="773.62,-788.66 767.34,-797.19 777.57,-794.44 773.62,-788.66"/>
</g>
<!-- kj -->
<g id="node29" class="node">
<title>kj</title>
<ellipse fill="none" stroke="black" cx="826" cy="-162" rx="27" ry="18"/>
<text text-anchor="middle" x="826" y="-158.3" font-family="Times,serif" font-size="14.00">kj</text>
</g>
<!-- mp&#45;&gt;kj -->
<g id="edge66" class="edge">
<title>mp&#45;&gt;kj</title>
<path fill="none" stroke="black" d="M826,-215.7C826,-207.98 826,-198.71 826,-190.11"/>
<polygon fill="black" stroke="black" points="829.5,-190.1 826,-180.1 822.5,-190.1 829.5,-190.1"/>
</g>
<!-- zg -->
<g id="node22" class="node">
<title>zg</title>
<ellipse fill="none" stroke="black" cx="74" cy="-90" rx="27" ry="18"/>
<text text-anchor="middle" x="74" y="-86.3" font-family="Times,serif" font-size="14.00">zg</text>
</g>
<!-- zg&#45;&gt;ls -->
<g id="edge18" class="edge">
<title>zg&#45;&gt;ls</title>
<path fill="none" stroke="black" d="M99.98,-94.96C185.38,-108.7 452,-157.64 452,-233 452,-811 452,-811 452,-811 452,-876.33 376.13,-920.07 331.24,-940.22"/>
<polygon fill="black" stroke="black" points="329.68,-937.09 321.91,-944.28 332.47,-943.51 329.68,-937.09"/>
</g>
<!-- zg&#45;&gt;gl -->
<g id="edge19" class="edge">
<title>zg&#45;&gt;gl</title>
<path fill="none" stroke="black" d="M60.08,-105.84C38.65,-130.32 0,-181.57 0,-233 0,-739 0,-739 0,-739 0,-784.15 13.45,-800.15 49,-828 96.23,-865 167.13,-876.25 210.04,-879.62"/>
<polygon fill="black" stroke="black" points="209.84,-883.12 220.05,-880.31 210.31,-876.13 209.84,-883.12"/>
</g>
<!-- lg -->
<g id="node23" class="node">
<title>lg</title>
<ellipse fill="none" stroke="black" cx="1182" cy="-90" rx="27" ry="18"/>
<text text-anchor="middle" x="1182" y="-86.3" font-family="Times,serif" font-size="14.00">lg</text>
</g>
<!-- lg&#45;&gt;hr -->
<g id="edge20" class="edge">
<title>lg&#45;&gt;hr</title>
<path fill="none" stroke="black" d="M1176.47,-107.84C1168.31,-134.21 1154,-187.02 1154,-233 1154,-667 1154,-667 1154,-667 1154,-712.37 1171.4,-724.45 1204,-756 1223.52,-774.9 1251.13,-788.68 1272.7,-797.45"/>
<polygon fill="black" stroke="black" points="1271.55,-800.76 1282.14,-801.13 1274.09,-794.24 1271.55,-800.76"/>
</g>
<!-- pt&#45;&gt;hr -->
<g id="edge22" class="edge">
<title>pt&#45;&gt;hr</title>
<path fill="none" stroke="black" d="M1205.64,-179.97C1200.69,-206.52 1192,-259.56 1192,-305 1192,-667 1192,-667 1192,-667 1192,-721.85 1244.36,-767.58 1278.11,-791.35"/>
<polygon fill="black" stroke="black" points="1276.43,-794.44 1286.66,-797.19 1280.38,-788.66 1276.43,-794.44"/>
</g>
<!-- pt&#45;&gt;lg -->
<g id="edge21" class="edge">
<title>pt&#45;&gt;lg</title>
<path fill="none" stroke="black" d="M1202.6,-144.41C1199.49,-136.34 1195.67,-126.43 1192.17,-117.35"/>
<polygon fill="black" stroke="black" points="1195.4,-116.03 1188.54,-107.96 1188.87,-118.55 1195.4,-116.03"/>
</g>
<!-- sp&#45;&gt;mj -->
<g id="edge23" class="edge">
<title>sp&#45;&gt;mj</title>
<path fill="none" stroke="black" d="M126.4,-360.05C124.25,-352.14 121.65,-342.54 119.24,-333.69"/>
<polygon fill="black" stroke="black" points="122.55,-332.52 116.56,-323.79 115.8,-334.36 122.55,-332.52"/>
</g>
<!-- ms -->
<g id="node27" class="node">
<title>ms</title>
<ellipse fill="none" stroke="black" cx="112" cy="-234" rx="27" ry="18"/>
<text text-anchor="middle" x="112" y="-230.3" font-family="Times,serif" font-size="14.00">ms</text>
</g>
<!-- mj&#45;&gt;ms -->
<g id="edge96" class="edge">
<title>mj&#45;&gt;ms</title>
<path fill="none" stroke="black" d="M112,-287.7C112,-279.98 112,-270.71 112,-262.11"/>
<polygon fill="black" stroke="black" points="115.5,-262.1 112,-252.1 108.5,-262.1 115.5,-262.1"/>
</g>
<!-- ms&#45;&gt;gl -->
<g id="edge24" class="edge">
<title>ms&#45;&gt;gl</title>
<path fill="none" stroke="black" d="M139.07,-235.37C213.19,-237.94 414,-256.06 414,-377 414,-739 414,-739 414,-739 414,-779.45 421.63,-797.56 395,-828 366.83,-860.21 317.65,-872.84 283.77,-877.8"/>
<polygon fill="black" stroke="black" points="283.24,-874.34 273.78,-879.11 284.15,-881.28 283.24,-874.34"/>
</g>
<!-- hx -->
<g id="node28" class="node">
<title>hx</title>
<ellipse fill="none" stroke="black" cx="74" cy="-162" rx="27" ry="18"/>
<text text-anchor="middle" x="74" y="-158.3" font-family="Times,serif" font-size="14.00">hx</text>
</g>
<!-- ms&#45;&gt;hx -->
<g id="edge25" class="edge">
<title>ms&#45;&gt;hx</title>
<path fill="none" stroke="black" d="M103.19,-216.76C98.58,-208.28 92.84,-197.71 87.68,-188.2"/>
<polygon fill="black" stroke="black" points="90.61,-186.27 82.77,-179.15 84.46,-189.61 90.61,-186.27"/>
</g>
<!-- hx&#45;&gt;gl -->
<g id="edge108" class="edge">
<title>hx&#45;&gt;gl</title>
<path fill="none" stroke="black" d="M66.89,-179.7C56.4,-205.89 38,-258.46 38,-305 38,-739 38,-739 38,-739 38,-784.59 53.75,-799.08 89,-828 124.17,-856.85 175.74,-870.26 210.3,-876.3"/>
<polygon fill="black" stroke="black" points="210.01,-879.8 220.44,-877.95 211.13,-872.89 210.01,-879.8"/>
</g>
<!-- hx&#45;&gt;zg -->
<g id="edge109" class="edge">
<title>hx&#45;&gt;zg</title>
<path fill="none" stroke="black" d="M74,-143.7C74,-135.98 74,-126.71 74,-118.11"/>
<polygon fill="black" stroke="black" points="77.5,-118.1 74,-108.1 70.5,-118.1 77.5,-118.1"/>
</g>
<!-- kj&#45;&gt;gk -->
<g id="edge27" class="edge">
<title>kj&#45;&gt;gk</title>
<path fill="none" stroke="black" d="M839.92,-177.84C861.35,-202.32 900,-253.57 900,-305 900,-667 900,-667 900,-667 900,-713.27 879.52,-724.11 846,-756 844.58,-757.35 805.85,-778.14 777.51,-793.28"/>
<polygon fill="black" stroke="black" points="775.54,-790.36 768.37,-798.16 778.84,-796.54 775.54,-790.36"/>
</g>
<!-- fl -->
<g id="node30" class="node">
<title>fl</title>
<ellipse fill="none" stroke="black" cx="694" cy="-90" rx="27" ry="18"/>
<text text-anchor="middle" x="694" y="-86.3" font-family="Times,serif" font-size="14.00">fl</text>
</g>
<!-- kj&#45;&gt;fl -->
<g id="edge26" class="edge">
<title>kj&#45;&gt;fl</title>
<path fill="none" stroke="black" d="M805.38,-150.06C783.39,-138.4 748.37,-119.83 723.48,-106.63"/>
<polygon fill="black" stroke="black" points="724.95,-103.45 714.48,-101.86 721.68,-109.64 724.95,-103.45"/>
</g>
<!-- fl&#45;&gt;gk -->
<g id="edge31" class="edge">
<title>fl&#45;&gt;gk</title>
<path fill="none" stroke="black" d="M672.79,-101.38C635.48,-121.31 562,-168.71 562,-233 562,-667 562,-667 562,-667 562,-713.04 579.98,-726.11 615,-756 643.12,-780 683.46,-794 712.33,-801.52"/>
<polygon fill="black" stroke="black" points="711.85,-805.01 722.4,-804.01 713.53,-798.21 711.85,-805.01"/>
</g>
<!-- jk -->
<g id="node36" class="node">
<title>jk</title>
<ellipse fill="none" stroke="black" cx="769" cy="-378" rx="27" ry="18"/>
<text text-anchor="middle" x="769" y="-374.3" font-family="Times,serif" font-size="14.00">jk</text>
</g>
<!-- rj&#45;&gt;jk -->
<g id="edge81" class="edge">
<title>rj&#45;&gt;jk</title>
<path fill="none" stroke="black" d="M724.37,-433.81C731.91,-424.55 741.7,-412.52 750.19,-402.09"/>
<polygon fill="black" stroke="black" points="753.06,-404.12 756.66,-394.16 747.63,-399.7 753.06,-404.12"/>
</g>
<!-- xc -->
<g id="node32" class="node">
<title>xc</title>
<ellipse fill="none" stroke="black" cx="1805" cy="-522" rx="27" ry="18"/>
<text text-anchor="middle" x="1805" y="-518.3" font-family="Times,serif" font-size="14.00">xc</text>
</g>
<!-- vq -->
<g id="node33" class="node">
<title>vq</title>
<ellipse fill="none" stroke="black" cx="1824" cy="-450" rx="27" ry="18"/>
<text text-anchor="middle" x="1824" y="-446.3" font-family="Times,serif" font-size="14.00">vq</text>
</g>
<!-- xc&#45;&gt;vq -->
<g id="edge30" class="edge">
<title>xc&#45;&gt;vq</title>
<path fill="none" stroke="black" d="M1809.6,-504.05C1811.75,-496.14 1814.35,-486.54 1816.76,-477.69"/>
<polygon fill="black" stroke="black" points="1820.2,-478.36 1819.44,-467.79 1813.45,-476.52 1820.2,-478.36"/>
</g>
<!-- gr -->
<g id="node53" class="node">
<title>gr</title>
<ellipse fill="none" stroke="black" cx="1824" cy="-378" rx="27" ry="18"/>
<text text-anchor="middle" x="1824" y="-374.3" font-family="Times,serif" font-size="14.00">gr</text>
</g>
<!-- vq&#45;&gt;gr -->
<g id="edge103" class="edge">
<title>vq&#45;&gt;gr</title>
<path fill="none" stroke="black" d="M1824,-431.7C1824,-423.98 1824,-414.71 1824,-406.11"/>
<polygon fill="black" stroke="black" points="1827.5,-406.1 1824,-396.1 1820.5,-406.1 1827.5,-406.1"/>
</g>
<!-- dh -->
<g id="node34" class="node">
<title>dh</title>
<ellipse fill="none" stroke="black" cx="1437" cy="-666" rx="27" ry="18"/>
<text text-anchor="middle" x="1437" y="-662.3" font-family="Times,serif" font-size="14.00">dh</text>
</g>
<!-- dh&#45;&gt;hr -->
<g id="edge32" class="edge">
<title>dh&#45;&gt;hr</title>
<path fill="none" stroke="black" d="M1432.59,-683.8C1426.84,-703.1 1415.17,-734.8 1396,-756 1380.08,-773.6 1356.91,-787.06 1338.07,-796.01"/>
<polygon fill="black" stroke="black" points="1336.6,-792.83 1328.95,-800.16 1339.5,-799.21 1336.6,-792.83"/>
</g>
<!-- nm -->
<g id="node35" class="node">
<title>nm</title>
<ellipse fill="none" stroke="black" cx="1399" cy="-594" rx="27" ry="18"/>
<text text-anchor="middle" x="1399" y="-590.3" font-family="Times,serif" font-size="14.00">nm</text>
</g>
<!-- dh&#45;&gt;nm -->
<g id="edge33" class="edge">
<title>dh&#45;&gt;nm</title>
<path fill="none" stroke="black" d="M1428.19,-648.76C1423.58,-640.28 1417.84,-629.71 1412.68,-620.2"/>
<polygon fill="black" stroke="black" points="1415.61,-618.27 1407.77,-611.15 1409.46,-621.61 1415.61,-618.27"/>
</g>
<!-- nm&#45;&gt;hr -->
<g id="edge101" class="edge">
<title>nm&#45;&gt;hr</title>
<path fill="none" stroke="black" d="M1397.59,-612.06C1394.44,-642.69 1384.88,-708.24 1358,-756 1351.02,-768.41 1340.38,-779.98 1330.54,-789.12"/>
<polygon fill="black" stroke="black" points="1328.05,-786.65 1322.9,-795.9 1332.7,-791.88 1328.05,-786.65"/>
</g>
<!-- rb -->
<g id="node56" class="node">
<title>rb</title>
<ellipse fill="none" stroke="black" cx="1361" cy="-522" rx="27" ry="18"/>
<text text-anchor="middle" x="1361" y="-518.3" font-family="Times,serif" font-size="14.00">rb</text>
</g>
<!-- nm&#45;&gt;rb -->
<g id="edge100" class="edge">
<title>nm&#45;&gt;rb</title>
<path fill="none" stroke="black" d="M1390.19,-576.76C1385.58,-568.28 1379.84,-557.71 1374.68,-548.2"/>
<polygon fill="black" stroke="black" points="1377.61,-546.27 1369.77,-539.15 1371.46,-549.61 1377.61,-546.27"/>
</g>
<!-- jk&#45;&gt;gk -->
<g id="edge34" class="edge">
<title>jk&#45;&gt;gk</title>
<path fill="none" stroke="black" d="M772.36,-395.97C777.31,-422.52 786,-475.56 786,-521 786,-667 786,-667 786,-667 786,-708.59 770.6,-754.78 759.4,-782.86"/>
<polygon fill="black" stroke="black" points="756.07,-781.76 755.51,-792.34 762.55,-784.42 756.07,-781.76"/>
</g>
<!-- jk&#45;&gt;dg -->
<g id="edge35" class="edge">
<title>jk&#45;&gt;dg</title>
<path fill="none" stroke="black" d="M777.81,-360.76C782.42,-352.28 788.16,-341.71 793.32,-332.2"/>
<polygon fill="black" stroke="black" points="796.54,-333.61 798.23,-323.15 790.39,-330.27 796.54,-333.61"/>
</g>
<!-- tf -->
<g id="node37" class="node">
<title>tf</title>
<ellipse fill="none" stroke="black" cx="1619" cy="-666" rx="27" ry="18"/>
<text text-anchor="middle" x="1619" y="-662.3" font-family="Times,serif" font-size="14.00">tf</text>
</g>
<!-- cb -->
<g id="node38" class="node">
<title>cb</title>
<ellipse fill="none" stroke="black" cx="1767" cy="-594" rx="27" ry="18"/>
<text text-anchor="middle" x="1767" y="-590.3" font-family="Times,serif" font-size="14.00">cb</text>
</g>
<!-- tf&#45;&gt;cb -->
<g id="edge36" class="edge">
<title>tf&#45;&gt;cb</title>
<path fill="none" stroke="black" d="M1640.52,-654.82C1665.73,-642.9 1707.68,-623.06 1736.3,-609.52"/>
<polygon fill="black" stroke="black" points="1737.91,-612.63 1745.45,-605.19 1734.92,-606.3 1737.91,-612.63"/>
</g>
<!-- cb&#45;&gt;xc -->
<g id="edge104" class="edge">
<title>cb&#45;&gt;xc</title>
<path fill="none" stroke="black" d="M1775.81,-576.76C1780.42,-568.28 1786.16,-557.71 1791.32,-548.2"/>
<polygon fill="black" stroke="black" points="1794.54,-549.61 1796.23,-539.15 1788.39,-546.27 1794.54,-549.61"/>
</g>
<!-- kd -->
<g id="node39" class="node">
<title>kd</title>
<ellipse fill="none" stroke="black" cx="1900" cy="-234" rx="27" ry="18"/>
<text text-anchor="middle" x="1900" y="-230.3" font-family="Times,serif" font-size="14.00">kd</text>
</g>
<!-- cm -->
<g id="node40" class="node">
<title>cm</title>
<ellipse fill="none" stroke="black" cx="1900" cy="-162" rx="27" ry="18"/>
<text text-anchor="middle" x="1900" y="-158.3" font-family="Times,serif" font-size="14.00">cm</text>
</g>
<!-- kd&#45;&gt;cm -->
<g id="edge37" class="edge">
<title>kd&#45;&gt;cm</title>
<path fill="none" stroke="black" d="M1900,-215.7C1900,-207.98 1900,-198.71 1900,-190.11"/>
<polygon fill="black" stroke="black" points="1903.5,-190.1 1900,-180.1 1896.5,-190.1 1903.5,-190.1"/>
</g>
<!-- kd&#45;&gt;nr -->
<g id="edge38" class="edge">
<title>kd&#45;&gt;nr</title>
<path fill="none" stroke="black" d="M1907.11,-251.7C1917.6,-277.89 1936,-330.46 1936,-377 1936,-595 1936,-595 1936,-595 1936,-670.89 1837.24,-711.37 1782.88,-727.9"/>
<polygon fill="black" stroke="black" points="1781.58,-724.63 1772.96,-730.8 1783.55,-731.35 1781.58,-724.63"/>
</g>
<!-- cm&#45;&gt;nr -->
<g id="edge59" class="edge">
<title>cm&#45;&gt;nr</title>
<path fill="none" stroke="black" d="M1873.63,-166.87C1814.02,-177.27 1674,-211.63 1674,-305 1674,-595 1674,-595 1674,-595 1674,-641.41 1705.47,-687.67 1727.36,-714.25"/>
<polygon fill="black" stroke="black" points="1724.94,-716.8 1734.08,-722.16 1730.27,-712.27 1724.94,-716.8"/>
</g>
<!-- cf -->
<g id="node52" class="node">
<title>cf</title>
<ellipse fill="none" stroke="black" cx="1946" cy="-90" rx="27" ry="18"/>
<text text-anchor="middle" x="1946" y="-86.3" font-family="Times,serif" font-size="14.00">cf</text>
</g>
<!-- cm&#45;&gt;cf -->
<g id="edge60" class="edge">
<title>cm&#45;&gt;cf</title>
<path fill="none" stroke="black" d="M1910.44,-145.12C1916.2,-136.34 1923.48,-125.26 1929.96,-115.42"/>
<polygon fill="black" stroke="black" points="1933.04,-117.1 1935.6,-106.82 1927.19,-113.26 1933.04,-117.1"/>
</g>
<!-- nr&#45;&gt;fd -->
<g id="edge67" class="edge">
<title>nr&#45;&gt;fd</title>
<path fill="none" stroke="black" d="M1749.32,-756.01C1747.33,-793.16 1734.34,-881.76 1724.62,-926.38"/>
<polygon fill="black" stroke="black" points="1721.19,-925.68 1722.35,-936.21 1728.01,-927.25 1721.19,-925.68"/>
</g>
<!-- nr&#45;&gt;xc -->
<g id="edge72" class="edge">
<title>nr&#45;&gt;xc</title>
<path fill="none" stroke="black" d="M1757.44,-721.12C1770.58,-698.04 1793.8,-653.43 1803,-612 1807.49,-591.76 1807.83,-568.29 1807.13,-550.54"/>
<polygon fill="black" stroke="black" points="1810.61,-550.1 1806.58,-540.3 1803.62,-550.47 1810.61,-550.1"/>
</g>
<!-- nr&#45;&gt;vq -->
<g id="edge73" class="edge">
<title>nr&#45;&gt;vq</title>
<path fill="none" stroke="black" d="M1764.52,-723.24C1775.43,-713.34 1789.28,-699.12 1798,-684 1831.37,-626.14 1831.34,-606.09 1841,-540 1843.31,-524.17 1843.47,-519.81 1841,-504 1839.62,-495.18 1837.02,-485.82 1834.26,-477.46"/>
<polygon fill="black" stroke="black" points="1837.51,-476.13 1830.89,-467.86 1830.9,-478.45 1837.51,-476.13"/>
</g>
<!-- nr&#45;&gt;tf -->
<g id="edge71" class="edge">
<title>nr&#45;&gt;tf</title>
<path fill="none" stroke="black" d="M1727.56,-725.91C1706.24,-714.34 1672.6,-696.09 1648.42,-682.97"/>
<polygon fill="black" stroke="black" points="1649.8,-679.73 1639.34,-678.04 1646.46,-685.89 1649.8,-679.73"/>
</g>
<!-- nr&#45;&gt;cb -->
<g id="edge70" class="edge">
<title>nr&#45;&gt;cb</title>
<path fill="none" stroke="black" d="M1750.29,-719.87C1753.53,-695.67 1759.48,-651.21 1763.33,-622.39"/>
<polygon fill="black" stroke="black" points="1766.84,-622.57 1764.7,-612.19 1759.9,-621.64 1766.84,-622.57"/>
</g>
<!-- fn -->
<g id="node47" class="node">
<title>fn</title>
<ellipse fill="none" stroke="black" cx="1509" cy="-666" rx="27" ry="18"/>
<text text-anchor="middle" x="1509" y="-662.3" font-family="Times,serif" font-size="14.00">fn</text>
</g>
<!-- nr&#45;&gt;fn -->
<g id="edge69" class="edge">
<title>nr&#45;&gt;fn</title>
<path fill="none" stroke="black" d="M1723.77,-729.9C1681,-717.38 1592.04,-691.32 1543.1,-676.99"/>
<polygon fill="black" stroke="black" points="1543.88,-673.57 1533.3,-674.12 1541.91,-680.29 1543.88,-673.57"/>
</g>
<!-- nr&#45;&gt;gr -->
<g id="edge68" class="edge">
<title>nr&#45;&gt;gr</title>
<path fill="none" stroke="black" d="M1740.89,-720.3C1730.4,-694.11 1712,-641.54 1712,-595 1712,-595 1712,-595 1712,-521 1712,-466.53 1763.44,-420.67 1796.6,-396.77"/>
<polygon fill="black" stroke="black" points="1798.81,-399.49 1805,-390.89 1794.8,-393.75 1798.81,-399.49"/>
</g>
<!-- hh&#45;&gt;nc -->
<g id="edge82" class="edge">
<title>hh&#45;&gt;nc</title>
<path fill="none" stroke="black" d="M1090.65,-648.76C1086.29,-640.28 1080.85,-629.71 1075.96,-620.2"/>
<polygon fill="black" stroke="black" points="1078.99,-618.44 1071.3,-611.15 1072.77,-621.64 1078.99,-618.44"/>
</g>
<!-- jd -->
<g id="node54" class="node">
<title>jd</title>
<ellipse fill="none" stroke="black" cx="1342" cy="-378" rx="27" ry="18"/>
<text text-anchor="middle" x="1342" y="-374.3" font-family="Times,serif" font-size="14.00">jd</text>
</g>
<!-- xl&#45;&gt;jd -->
<g id="edge107" class="edge">
<title>xl&#45;&gt;jd</title>
<path fill="none" stroke="black" d="M1342,-431.7C1342,-423.98 1342,-414.71 1342,-406.11"/>
<polygon fill="black" stroke="black" points="1345.5,-406.1 1342,-396.1 1338.5,-406.1 1345.5,-406.1"/>
</g>
<!-- qq&#45;&gt;dh -->
<g id="edge93" class="edge">
<title>qq&#45;&gt;dh</title>
<path fill="none" stroke="black" d="M1466.19,-720.76C1461.58,-712.28 1455.84,-701.71 1450.68,-692.2"/>
<polygon fill="black" stroke="black" points="1453.61,-690.27 1445.77,-683.15 1447.46,-693.61 1453.61,-690.27"/>
</g>
<!-- xr&#45;&gt;hr -->
<g id="edge58" class="edge">
<title>xr&#45;&gt;hr</title>
<path fill="none" stroke="black" d="M1356.43,-866.15C1347.69,-856.6 1336.17,-843.99 1326.34,-833.25"/>
<polygon fill="black" stroke="black" points="1328.88,-830.84 1319.55,-825.82 1323.72,-835.57 1328.88,-830.84"/>
</g>
<!-- xr&#45;&gt;qq -->
<g id="edge57" class="edge">
<title>xr&#45;&gt;qq</title>
<path fill="none" stroke="black" d="M1381.44,-865.53C1399.74,-840.78 1435.75,-792.08 1457.37,-762.85"/>
<polygon fill="black" stroke="black" points="1460.45,-764.57 1463.58,-754.45 1454.82,-760.41 1460.45,-764.57"/>
</g>
<!-- hq&#45;&gt;ql -->
<g id="edge45" class="edge">
<title>hq&#45;&gt;ql</title>
<path fill="none" stroke="black" d="M663.81,-648.76C668.42,-640.28 674.16,-629.71 679.32,-620.2"/>
<polygon fill="black" stroke="black" points="682.54,-621.61 684.23,-611.15 676.39,-618.27 682.54,-621.61"/>
</g>
<!-- fn&#45;&gt;nc -->
<g id="edge46" class="edge">
<title>fn&#45;&gt;nc</title>
<path fill="none" stroke="black" d="M1488.49,-653.97C1483.54,-651.69 1478.17,-649.52 1473,-648 1339.4,-608.88 1172.89,-598.61 1100.03,-595.94"/>
<polygon fill="black" stroke="black" points="1100.09,-592.44 1089.97,-595.59 1099.85,-599.43 1100.09,-592.44"/>
</g>
<!-- xn&#45;&gt;xg -->
<g id="edge97" class="edge">
<title>xn&#45;&gt;xg</title>
<path fill="none" stroke="black" d="M274.19,-648.76C269.58,-640.28 263.84,-629.71 258.68,-620.2"/>
<polygon fill="black" stroke="black" points="261.61,-618.27 253.77,-611.15 255.46,-621.61 261.61,-618.27"/>
</g>
<!-- jh -->
<g id="node49" class="node">
<title>jh</title>
<ellipse fill="none" stroke="black" cx="1881" cy="-306" rx="27" ry="18"/>
<text text-anchor="middle" x="1881" y="-302.3" font-family="Times,serif" font-size="14.00">jh</text>
</g>
<!-- jh&#45;&gt;kd -->
<g id="edge50" class="edge">
<title>jh&#45;&gt;kd</title>
<path fill="none" stroke="black" d="M1885.6,-288.05C1887.75,-280.14 1890.35,-270.54 1892.76,-261.69"/>
<polygon fill="black" stroke="black" points="1896.2,-262.36 1895.44,-251.79 1889.45,-260.52 1896.2,-262.36"/>
</g>
<!-- jh&#45;&gt;nr -->
<g id="edge49" class="edge">
<title>jh&#45;&gt;nr</title>
<path fill="none" stroke="black" d="M1884.36,-323.97C1889.31,-350.52 1898,-403.56 1898,-449 1898,-595 1898,-595 1898,-595 1898,-659.48 1824,-703.43 1779.95,-723.89"/>
<polygon fill="black" stroke="black" points="1778.47,-720.72 1770.78,-728.01 1781.34,-727.1 1778.47,-720.72"/>
</g>
<!-- dd&#45;&gt;sp -->
<g id="edge102" class="edge">
<title>dd&#45;&gt;sp</title>
<path fill="none" stroke="black" d="M160.19,-432.76C155.58,-424.28 149.84,-413.71 144.68,-404.2"/>
<polygon fill="black" stroke="black" points="147.61,-402.27 139.77,-395.15 141.46,-405.61 147.61,-402.27"/>
</g>
<!-- tp&#45;&gt;hq -->
<g id="edge52" class="edge">
<title>tp&#45;&gt;hq</title>
<path fill="none" stroke="black" d="M528.52,-726.82C553.73,-714.9 595.68,-695.06 624.3,-681.52"/>
<polygon fill="black" stroke="black" points="625.91,-684.63 633.45,-677.19 622.92,-678.3 625.91,-684.63"/>
</g>
<!-- cf&#45;&gt;nr -->
<g id="edge53" class="edge">
<title>cf&#45;&gt;nr</title>
<path fill="none" stroke="black" d="M1951.53,-107.84C1959.69,-134.21 1974,-187.02 1974,-233 1974,-595 1974,-595 1974,-595 1974,-683.45 1848.36,-718.94 1784.44,-731.28"/>
<polygon fill="black" stroke="black" points="1783.57,-727.88 1774.37,-733.13 1784.84,-734.76 1783.57,-727.88"/>
</g>
<!-- gr&#45;&gt;jh -->
<g id="edge54" class="edge">
<title>gr&#45;&gt;jh</title>
<path fill="none" stroke="black" d="M1836.37,-361.81C1843.91,-352.55 1853.7,-340.52 1862.19,-330.09"/>
<polygon fill="black" stroke="black" points="1865.06,-332.12 1868.66,-322.16 1859.63,-327.7 1865.06,-332.12"/>
</g>
<!-- jd&#45;&gt;bm -->
<g id="edge56" class="edge">
<title>jd&#45;&gt;bm</title>
<path fill="none" stroke="black" d="M1329.63,-361.81C1322.09,-352.55 1312.3,-340.52 1303.81,-330.09"/>
<polygon fill="black" stroke="black" points="1306.37,-327.7 1297.34,-322.16 1300.94,-332.12 1306.37,-327.7"/>
</g>
<!-- jd&#45;&gt;hr -->
<g id="edge55" class="edge">
<title>jd&#45;&gt;hr</title>
<path fill="none" stroke="black" d="M1368.34,-383.11C1427.14,-393.95 1564,-429.04 1564,-521 1564,-667 1564,-667 1564,-667 1564,-713.04 1547.83,-728.38 1511,-756 1461.03,-793.46 1387.11,-804.54 1343.03,-807.76"/>
<polygon fill="black" stroke="black" points="1342.79,-804.27 1333.03,-808.39 1343.23,-811.25 1342.79,-804.27"/>
</g>
<!-- fh&#45;&gt;nc -->
<g id="edge61" class="edge">
<title>fh&#45;&gt;nc</title>
<path fill="none" stroke="black" d="M1035.35,-648.76C1039.71,-640.28 1045.15,-629.71 1050.04,-620.2"/>
<polygon fill="black" stroke="black" points="1053.23,-621.64 1054.7,-611.15 1047.01,-618.44 1053.23,-621.64"/>
</g>
<!-- rb&#45;&gt;hr -->
<g id="edge63" class="edge">
<title>rb&#45;&gt;hr</title>
<path fill="none" stroke="black" d="M1358.5,-540.05C1352.73,-578.69 1337.62,-675.77 1320,-756 1318.13,-764.5 1315.82,-773.68 1313.61,-781.98"/>
<polygon fill="black" stroke="black" points="1310.15,-781.33 1310.91,-791.9 1316.91,-783.17 1310.15,-781.33"/>
</g>
<!-- rb&#45;&gt;xl -->
<g id="edge62" class="edge">
<title>rb&#45;&gt;xl</title>
<path fill="none" stroke="black" d="M1356.4,-504.05C1354.25,-496.14 1351.65,-486.54 1349.24,-477.69"/>
<polygon fill="black" stroke="black" points="1352.55,-476.52 1346.56,-467.79 1345.8,-478.36 1352.55,-476.52"/>
</g>
<!-- df&#45;&gt;nr -->
<g id="edge94" class="edge">
<title>df&#45;&gt;nr</title>
<path fill="none" stroke="black" d="M1691.47,-864.43C1702.5,-839.96 1723.25,-793.91 1736.31,-764.94"/>
<polygon fill="black" stroke="black" points="1739.66,-766.02 1740.58,-755.46 1733.28,-763.14 1739.66,-766.02"/>
</g>
<!-- nv -->
<g id="node59" class="node">
<title>nv</title>
<ellipse fill="none" stroke="black" cx="1646" cy="-810" rx="27" ry="18"/>
<text text-anchor="middle" x="1646" y="-806.3" font-family="Times,serif" font-size="14.00">nv</text>
</g>
<!-- df&#45;&gt;nv -->
<g id="edge95" class="edge">
<title>df&#45;&gt;nv</title>
<path fill="none" stroke="black" d="M1675.19,-864.76C1670.58,-856.28 1664.84,-845.71 1659.68,-836.2"/>
<polygon fill="black" stroke="black" points="1662.61,-834.27 1654.77,-827.15 1656.46,-837.61 1662.61,-834.27"/>
</g>
<!-- nv&#45;&gt;tf -->
<g id="edge105" class="edge">
<title>nv&#45;&gt;tf</title>
<path fill="none" stroke="black" d="M1642.74,-791.87C1638.14,-767.67 1629.69,-723.21 1624.21,-694.39"/>
<polygon fill="black" stroke="black" points="1627.57,-693.36 1622.27,-684.19 1620.7,-694.67 1627.57,-693.36"/>
</g>
<!-- nv&#45;&gt;nr -->
<g id="edge106" class="edge">
<title>nv&#45;&gt;nr</title>
<path fill="none" stroke="black" d="M1664.24,-796.49C1680.19,-785.54 1703.57,-769.49 1721.57,-757.14"/>
<polygon fill="black" stroke="black" points="1723.66,-759.95 1729.92,-751.41 1719.7,-754.18 1723.66,-759.95"/>
</g>
</g>
</svg>
